<!--
=============================================================
  hero-bg.svg — Animated Engineering Background
  Hamid Mahdavi Portfolio
=============================================================

HOW TO REPLACE / EDIT THIS SVG
───────────────────────────────
1. SWAP WITH YOUR OWN SVG IMAGE:
   - Open index.html, find <div class="hero-bg-wrap">
   - Replace <img class="hero-bg"> src with your file path
   - Or replace the entire <img> with an <svg> block

2. EDIT INDIVIDUAL LAYERS:
   Each layer has an id and a comment explaining what it does.
   Layers from back to front:
     #bg-grid        → engineering grid / blueprint lines
     #bg-nodes       → structural node dots
     #bg-mesh        → finite element mesh triangles
     #bg-frames      → floating H-beam wireframe outlines
     #bg-streams     → AI data stream lines
     #bg-silhouettes → faint industrial plant silhouettes
     #bg-glow        → ambient radial glow blobs

3. CHANGE COLORS:
   All stroke/fill colors reference CSS custom properties
   injected via <style> inside this SVG.
   Dark mode  → edit :root colors below
   Light mode → edit [data-theme="light"] colors below

4. CHANGE ANIMATION SPEED:
   Each <animateTransform> or <animate> has a dur= attribute.
   Increase duration → slower animation
   Decrease duration → faster animation

5. TURN OFF AN ANIMATION:
   Add  animationPlayState: paused  in CSS, or
   remove the <animate*> child element from any shape.

6. DISABLE THE BACKGROUND ENTIRELY:
   In styles.css, set:  .hero-bg-wrap { display: none; }

=============================================================
-->
<svg
  id="hero-bg-svg"
  xmlns="http://www.w3.org/2000/svg"
  xmlns:xlink="http://www.w3.org/1999/xlink"
  viewBox="0 0 1440 900"
  preserveAspectRatio="xMidYMid slice"
  aria-hidden="true"
>
<defs>

  <!-- ── FILTERS ── -->
  <filter id="f-glow-gold" x="-50%" y="-50%" width="200%" height="200%">
    <feGaussianBlur stdDeviation="6" result="blur"/>
    <feComposite in="SourceGraphic" in2="blur" operator="over"/>
  </filter>
  <filter id="f-glow-soft" x="-30%" y="-30%" width="160%" height="160%">
    <feGaussianBlur stdDeviation="18"/>
  </filter>
  <filter id="f-blur2">
    <feGaussianBlur stdDeviation="2"/>
  </filter>
  <filter id="f-blur1">
    <feGaussianBlur stdDeviation="1"/>
  </filter>

  <!-- ── GRADIENTS ── -->
  <radialGradient id="g-center-dark" cx="50%" cy="48%" r="45%">
    <stop offset="0%"   stop-color="var(--hero-center)" stop-opacity="1"/>
    <stop offset="100%" stop-color="var(--hero-center)" stop-opacity="0"/>
  </radialGradient>

  <radialGradient id="g-glow-gold-tl" cx="15%" cy="20%" r="40%">
    <stop offset="0%"   stop-color="var(--accent)" stop-opacity="0.12"/>
    <stop offset="100%" stop-color="var(--accent)" stop-opacity="0"/>
  </radialGradient>
  <radialGradient id="g-glow-gold-br" cx="85%" cy="80%" r="35%">
    <stop offset="0%"   stop-color="var(--accent)" stop-opacity="0.08"/>
    <stop offset="100%" stop-color="var(--accent)" stop-opacity="0"/>
  </radialGradient>
  <radialGradient id="g-glow-blue-tr" cx="80%" cy="15%" r="30%">
    <stop offset="0%"   stop-color="var(--steel)"  stop-opacity="0.07"/>
    <stop offset="100%" stop-color="var(--steel)"  stop-opacity="0"/>
  </radialGradient>

  <!-- Clip to SVG bounds -->
  <clipPath id="clip-bounds">
    <rect width="1440" height="900"/>
  </clipPath>

  <!-- Dash patterns for streams -->
  <marker id="m-arrow" markerWidth="6" markerHeight="6" refX="3" refY="3" orient="auto">
    <path d="M0,0 L6,3 L0,6 Z" fill="var(--accent)" opacity="0.5"/>
  </marker>

</defs>

<!-- ── INLINE THEME STYLES ──
     These override when data-theme="light" is set on <html>.
     All SVG colors live here — edit these to change the look. -->
<style>
  :root {
    /* dark theme defaults — referenced by SVG elements */
    --bg-base:     #0b0c0e;
    --hero-center: #0a0b0d;
    --accent:      #b89b6a;
    --accent2:     #d4b88a;
    --steel:       #7a9ab5;
    --grid-stroke: rgba(184,155,106,0.06);
    --mesh-stroke: rgba(184,155,106,0.09);
    --frame-stroke: rgba(184,155,106,0.18);
    --node-fill:   rgba(184,155,106,0.5);
    --stream-stroke: rgba(184,155,106,0.22);
    --sil-fill:    rgba(184,155,106,0.04);
    --glow-opacity: 1;
  }
  [data-theme="light"] {
    --bg-base:     #f2ece0;
    --hero-center: #ede7db;
    --accent:      #7a5e2e;
    --accent2:     #5c4420;
    --steel:       #3d5e7a;
    --grid-stroke: rgba(122,94,46,0.07);
    --mesh-stroke: rgba(122,94,46,0.10);
    --frame-stroke: rgba(122,94,46,0.20);
    --node-fill:   rgba(122,94,46,0.45);
    --stream-stroke: rgba(122,94,46,0.18);
    --sil-fill:    rgba(122,94,46,0.05);
    --glow-opacity: 0.6;
  }

  #hero-bg-svg { transition: none; }

  /* Slow-breathe keyframes */
  @keyframes breathe {
    0%, 100% { opacity: 0.7; }
    50%       { opacity: 1;   }
  }
  @keyframes breathe2 {
    0%, 100% { opacity: 0.4; }
    50%       { opacity: 0.9; }
  }
  @keyframes pulse-node {
    0%, 100% { r: 2.5px; opacity: 0.5; }
    50%       { r: 4px;   opacity: 1;   }
  }
  @keyframes drift-right {
    from { transform: translateX(0); }
    to   { transform: translateX(60px); }
  }
  @keyframes drift-up {
    from { transform: translateY(0); }
    to   { transform: translateY(-40px); }
  }
  @keyframes dash-flow {
    from { stroke-dashoffset: 200; }
    to   { stroke-dashoffset: 0;   }
  }
  @keyframes dash-flow-rev {
    from { stroke-dashoffset: 0;   }
    to   { stroke-dashoffset: 200; }
  }
  @keyframes float-frame {
    0%, 100% { transform: translateY(0) rotate(0deg);   }
    33%       { transform: translateY(-8px) rotate(0.3deg);  }
    66%       { transform: translateY(5px)  rotate(-0.2deg); }
  }
  @keyframes float-frame2 {
    0%, 100% { transform: translateY(0) rotate(0deg);   }
    40%       { transform: translateY(10px) rotate(-0.4deg); }
    70%       { transform: translateY(-6px) rotate(0.2deg);  }
  }
  @keyframes spin-slow {
    from { transform: rotate(0deg);   }
    to   { transform: rotate(360deg); }
  }
  @keyframes stream-pulse {
    0%, 100% { opacity: 0.15; stroke-dashoffset: 300; }
    50%       { opacity: 0.45; stroke-dashoffset: 0;   }
  }
  @keyframes stream-pulse2 {
    0%, 100% { opacity: 0.08; stroke-dashoffset: 0;   }
    60%       { opacity: 0.35; stroke-dashoffset: 300; }
  }

  /* Apply animations */
  .layer-glow     { animation: breathe  8s ease-in-out infinite; opacity: var(--glow-opacity); }
  .layer-glow2    { animation: breathe2 11s ease-in-out infinite; opacity: var(--glow-opacity); }
  .node-pulse-a   { animation: pulse-node 3s ease-in-out infinite; }
  .node-pulse-b   { animation: pulse-node 4.5s ease-in-out 1s infinite; }
  .node-pulse-c   { animation: pulse-node 3.8s ease-in-out 2.2s infinite; }
  .frame-a        { animation: float-frame  14s ease-in-out infinite; transform-origin: center; }
  .frame-b        { animation: float-frame2 18s ease-in-out infinite; transform-origin: center; }
  .frame-c        { animation: float-frame  20s ease-in-out 3s infinite; transform-origin: center; }
  .stream-a       { animation: stream-pulse  6s ease-in-out infinite; }
  .stream-b       { animation: stream-pulse2 9s ease-in-out 1.5s infinite; }
  .stream-c       { animation: stream-pulse  7s ease-in-out 3s   infinite; }
  .stream-d       { animation: stream-pulse2 11s ease-in-out 0.5s infinite; }
  .drift-r        { animation: drift-right 30s linear infinite alternate; }
  .drift-u        { animation: drift-up    25s linear infinite alternate; }
</style>

<g clip-path="url(#clip-bounds)">

<!-- ════════════════════════════════════════════
     LAYER 0 — BASE FILL (background rectangle)
     ════════════════════════════════════════════ -->
<rect width="1440" height="900" fill="var(--bg-base)"/>


<!-- ════════════════════════════════════════════
     LAYER 1 — AMBIENT GLOW BLOBS (deepest bg)
     Edit radialGradient stops above to change colors.
     ════════════════════════════════════════════ -->
<g id="bg-glow">
  <rect class="layer-glow"  width="1440" height="900" fill="url(#g-glow-gold-tl)"/>
  <rect class="layer-glow2" width="1440" height="900" fill="url(#g-glow-gold-br)"/>
  <rect class="layer-glow"  width="1440" height="900" fill="url(#g-glow-blue-tr)"/>
  <!-- center darkening vignette for text readability -->
  <rect width="1440" height="900" fill="url(#g-center-dark)" opacity="0.55"/>
</g>


<!-- ════════════════════════════════════════════
     LAYER 2 — ENGINEERING GRID
     Blueprint-style coordinate grid.
     Change stroke="var(grid-stroke)" to adjust color/opacity.
     ════════════════════════════════════════════ -->
<g id="bg-grid" stroke="var(--grid-stroke)" stroke-width="1" fill="none">
  <!-- Major horizontal lines every 90px -->
  <line x1="0"    y1="90"  x2="1440" y2="90"/>
  <line x1="0"    y1="180" x2="1440" y2="180"/>
  <line x1="0"    y1="270" x2="1440" y2="270"/>
  <line x1="0"    y1="360" x2="1440" y2="360"/>
  <line x1="0"    y1="450" x2="1440" y2="450"/>
  <line x1="0"    y1="540" x2="1440" y2="540"/>
  <line x1="0"    y1="630" x2="1440" y2="630"/>
  <line x1="0"    y1="720" x2="1440" y2="720"/>
  <line x1="0"    y1="810" x2="1440" y2="810"/>
  <!-- Major vertical lines every 90px -->
  <line x1="90"  y1="0" x2="90"  y2="900"/>
  <line x1="180" y1="0" x2="180" y2="900"/>
  <line x1="270" y1="0" x2="270" y2="900"/>
  <line x1="360" y1="0" x2="360" y2="900"/>
  <line x1="450" y1="0" x2="450" y2="900"/>
  <line x1="540" y1="0" x2="540" y2="900"/>
  <line x1="630" y1="0" x2="630" y2="900"/>
  <line x1="720" y1="0" x2="720" y2="900"/>
  <line x1="810" y1="0" x2="810" y2="900"/>
  <line x1="900" y1="0" x2="900" y2="900"/>
  <line x1="990" y1="0" x2="990" y2="900"/>
  <line x1="1080" y1="0" x2="1080" y2="900"/>
  <line x1="1170" y1="0" x2="1170" y2="900"/>
  <line x1="1260" y1="0" x2="1260" y2="900"/>
  <line x1="1350" y1="0" x2="1350" y2="900"/>
  <!-- Minor grid sub-divisions (30px, even fainter) -->
  <g opacity="0.45">
    <line x1="30"  y1="0" x2="30"  y2="900"/><line x1="60"  y1="0" x2="60"  y2="900"/>
    <line x1="120" y1="0" x2="120" y2="900"/><line x1="150" y1="0" x2="150" y2="900"/>
    <line x1="210" y1="0" x2="210" y2="900"/><line x1="240" y1="0" x2="240" y2="900"/>
    <line x1="300" y1="0" x2="300" y2="900"/><line x1="330" y1="0" x2="330" y2="900"/>
    <line x1="390" y1="0" x2="390" y2="900"/><line x1="420" y1="0" x2="420" y2="900"/>
    <line x1="480" y1="0" x2="480" y2="900"/><line x1="510" y1="0" x2="510" y2="900"/>
    <line x1="570" y1="0" x2="570" y2="900"/><line x1="600" y1="0" x2="600" y2="900"/>
    <line x1="660" y1="0" x2="660" y2="900"/><line x1="690" y1="0" x2="690" y2="900"/>
    <line x1="750" y1="0" x2="750" y2="900"/><line x1="780" y1="0" x2="780" y2="900"/>
    <line x1="840" y1="0" x2="840" y2="900"/><line x1="870" y1="0" x2="870" y2="900"/>
    <line x1="930" y1="0" x2="930" y2="900"/><line x1="960" y1="0" x2="960" y2="900"/>
    <line x1="1020" y1="0" x2="1020" y2="900"/><line x1="1050" y1="0" x2="1050" y2="900"/>
    <line x1="1110" y1="0" x2="1110" y2="900"/><line x1="1140" y1="0" x2="1140" y2="900"/>
    <line x1="1200" y1="0" x2="1200" y2="900"/><line x1="1230" y1="0" x2="1230" y2="900"/>
    <line x1="1290" y1="0" x2="1290" y2="900"/><line x1="1320" y1="0" x2="1320" y2="900"/>
    <line x1="1380" y1="0" x2="1380" y2="900"/><line x1="1410" y1="0" x2="1410" y2="900"/>
    <line x1="0" y1="30" x2="1440" y2="30"/><line x1="0" y1="60" x2="1440" y2="60"/>
    <line x1="0" y1="120" x2="1440" y2="120"/><line x1="0" y1="150" x2="1440" y2="150"/>
    <line x1="0" y1="210" x2="1440" y2="210"/><line x1="0" y1="240" x2="1440" y2="240"/>
    <line x1="0" y1="300" x2="1440" y2="300"/><line x1="0" y1="330" x2="1440" y2="330"/>
    <line x1="0" y1="390" x2="1440" y2="390"/><line x1="0" y1="420" x2="1440" y2="420"/>
    <line x1="0" y1="480" x2="1440" y2="480"/><line x1="0" y1="510" x2="1440" y2="510"/>
    <line x1="0" y1="570" x2="1440" y2="570"/><line x1="0" y1="600" x2="1440" y2="600"/>
    <line x1="0" y1="660" x2="1440" y2="660"/><line x1="0" y1="690" x2="1440" y2="690"/>
    <line x1="0" y1="750" x2="1440" y2="750"/><line x1="0" y1="780" x2="1440" y2="780"/>
    <line x1="0" y1="840" x2="1440" y2="840"/><line x1="0" y1="870" x2="1440" y2="870"/>
  </g>
</g>


<!-- ════════════════════════════════════════════
     LAYER 3 — FINITE ELEMENT MESH
     Triangulated parametric mesh pattern.
     Lives left and right, avoids center.
     ════════════════════════════════════════════ -->
<g id="bg-mesh" stroke="var(--mesh-stroke)" stroke-width="0.8" fill="none" filter="url(#f-blur1)">
  <!-- LEFT mesh cluster -->
  <g class="drift-u" style="transform-origin:200px 450px">
    <polygon points="60,200 160,150 180,260"/>
    <polygon points="160,150 280,120 180,260"/>
    <polygon points="280,120 320,230 180,260"/>
    <polygon points="60,200 180,260 80,320"/>
    <polygon points="180,260 320,230 260,350"/>
    <polygon points="80,320 180,260 140,400"/>
    <polygon points="140,400 260,350 200,460"/>
    <polygon points="60,200 60,320 80,320"/>
    <polygon points="320,230 360,150 280,120"/>
    <polygon points="200,460 260,350 320,420"/>
    <polygon points="140,400 200,460 100,500"/>
    <polygon points="100,500 200,460 160,560"/>
    <polygon points="60,420 140,400 100,500"/>
    <!-- tiny triangles deeper in -->
    <polygon points="30,500 80,480 60,560" opacity="0.5"/>
    <polygon points="80,480 140,500 100,560" opacity="0.5"/>
    <polygon points="200,560 280,540 240,630" opacity="0.5"/>
    <polygon points="280,540 360,560 300,640" opacity="0.5"/>
    <polygon points="360,560 400,480 420,580" opacity="0.4"/>
  </g>
  <!-- RIGHT mesh cluster -->
  <g class="drift-u" style="transform-origin:1240px 420px;animation-delay:-12s">
    <polygon points="1080,180 1180,140 1200,250"/>
    <polygon points="1180,140 1300,160 1200,250"/>
    <polygon points="1300,160 1340,280 1200,250"/>
    <polygon points="1340,280 1380,200 1300,160"/>
    <polygon points="1200,250 1340,280 1260,380"/>
    <polygon points="1080,180 1200,250 1120,350"/>
    <polygon points="1120,350 1260,380 1200,460"/>
    <polygon points="1200,460 1260,380 1340,440"/>
    <polygon points="1120,350 1200,460 1080,500"/>
    <polygon points="1080,500 1200,460 1160,560"/>
    <polygon points="1340,440 1400,500 1360,580"/>
    <polygon points="1360,580 1400,500 1440,560" opacity="0.5"/>
    <!-- deep right -->
    <polygon points="1380,600 1440,640 1400,700" opacity="0.4"/>
    <polygon points="1300,620 1380,600 1360,700" opacity="0.5"/>
    <polygon points="1260,700 1360,700 1300,780" opacity="0.4"/>
  </g>
  <!-- BOTTOM mesh band -->
  <g opacity="0.6">
    <polygon points="400,780 500,760 480,860"/>
    <polygon points="500,760 600,780 520,860"/>
    <polygon points="600,780 680,750 640,850"/>
    <polygon points="800,760 880,740 860,840"/>
    <polygon points="880,740 980,760 940,860"/>
    <polygon points="980,760 1060,780 1020,870"/>
  </g>
</g>


<!-- ════════════════════════════════════════════
     LAYER 4 — INDUSTRIAL SILHOUETTES
     Faint skyline of industrial plant structures.
     Edit the path d="" values to change shapes.
     ════════════════════════════════════════════ -->
<g id="bg-silhouettes" fill="var(--sil-fill)" stroke="var(--grid-stroke)" stroke-width="0.5">
  <!-- Far-right: refinery tower cluster -->
  <rect x="1300" y="600" width="18" height="200"/>
  <rect x="1296" y="595" width="26" height="8"/>
  <rect x="1322" y="650" width="14" height="150"/>
  <rect x="1318" y="646" width="22" height="7"/>
  <rect x="1340" y="680" width="10" height="120"/>
  <rect x="1355" y="700" width="22" height="100"/>
  <rect x="1351" y="696" width="30" height="8"/>
  <rect x="1380" y="720" width="14" height="80"/>
  <!-- Pipe rack right -->
  <rect x="1260" y="760" width="160" height="6"/>
  <rect x="1270" y="730" width="6" height="36"/>
  <rect x="1310" y="730" width="6" height="36"/>
  <rect x="1350" y="730" width="6" height="36"/>
  <rect x="1390" y="730" width="6" height="36"/>
  <!-- Far-left: silo + conveyor -->
  <rect x="30"  y="640" width="40" height="160"/>
  <rect x="26"  y="635" width="48" height="10" rx="2"/>
  <ellipse cx="50" cy="635" rx="24" ry="8" fill="none" stroke="var(--grid-stroke)"/>
  <rect x="80"  y="700" width="25" height="100"/>
  <rect x="108" y="660" width="6"  height="140"/>
  <!-- diagonal conveyor -->
  <line x1="110" y1="660" x2="230" y2="760" stroke="var(--mesh-stroke)" stroke-width="1"/>
  <line x1="116" y1="660" x2="236" y2="760" stroke="var(--mesh-stroke)" stroke-width="1"/>
  <!-- Bottom-left industrial base -->
  <rect x="0"   y="820" width="400" height="80" opacity="0.6"/>
  <rect x="400" y="840" width="200" height="60" opacity="0.4"/>
  <rect x="1100" y="830" width="340" height="70" opacity="0.5"/>
</g>


<!-- ════════════════════════════════════════════
     LAYER 5 — FLOATING STRUCTURAL FRAMES
     H-beam / box-section wireframe outlines.
     Each .frame-* group floats independently.
     To add more frames: copy a <g class="frame-a"> block
     and position it with transform="translate(x,y)".
     ════════════════════════════════════════════ -->
<g id="bg-frames" stroke="var(--frame-stroke)" stroke-width="1.1" fill="none" filter="url(#f-blur1)">

  <!-- Frame A — upper left, isometric H-beam joint -->
  <g class="frame-a" transform="translate(140,110)">
    <!-- vertical column -->
    <line x1="40" y1="0"  x2="40" y2="160"/>
    <line x1="56" y1="0"  x2="56" y2="160"/>
    <line x1="32" y1="0"  x2="64" y2="0"/>
    <line x1="32" y1="12" x2="64" y2="12"/>
    <line x1="32" y1="148" x2="64" y2="148"/>
    <line x1="32" y1="160" x2="64" y2="160"/>
    <!-- horizontal beam right -->
    <line x1="56" y1="60" x2="160" y2="60"/>
    <line x1="56" y1="72" x2="160" y2="72"/>
    <line x1="152" y1="52" x2="160" y2="52"/>
    <line x1="152" y1="80" x2="160" y2="80"/>
    <!-- horizontal beam left -->
    <line x1="32" y1="60" x2="-60" y2="60"/>
    <line x1="32" y1="72" x2="-60" y2="72"/>
    <!-- connection gusset plate -->
    <polygon points="32,54 56,54 56,78 32,78" opacity="0.5"/>
    <!-- bolts -->
    <circle cx="37" cy="60" r="2"/><circle cx="51" cy="60" r="2"/>
    <circle cx="37" cy="72" r="2"/><circle cx="51" cy="72" r="2"/>
    <!-- base plate -->
    <rect x="24" y="160" width="48" height="10" rx="1"/>
  </g>

  <!-- Frame B — upper right, box-section frame -->
  <g class="frame-b" transform="translate(1180,80)">
    <rect x="0"   y="0"   width="100" height="140" rx="0"/>
    <rect x="12"  y="12"  width="76"  height="116" rx="0"/>
    <!-- cross bracing inside -->
    <line x1="12" y1="12"  x2="88"  y2="128"/>
    <line x1="88" y1="12"  x2="12"  y2="128"/>
    <!-- stiffener plates -->
    <line x1="0"  y1="46"  x2="100" y2="46"/>
    <line x1="0"  y1="94"  x2="100" y2="94"/>
    <!-- node connectors -->
    <circle cx="0"   cy="0"   r="5" fill="var(--node-fill)" stroke="none"/>
    <circle cx="100" cy="0"   r="5" fill="var(--node-fill)" stroke="none"/>
    <circle cx="0"   cy="140" r="5" fill="var(--node-fill)" stroke="none"/>
    <circle cx="100" cy="140" r="5" fill="var(--node-fill)" stroke="none"/>
  </g>

  <!-- Frame C — lower left, truss section -->
  <g class="frame-c" transform="translate(60,580)">
    <!-- top chord -->
    <line x1="0"  y1="0"  x2="220" y2="0"/>
    <!-- bottom chord -->
    <line x1="0"  y1="60" x2="220" y2="60"/>
    <!-- verticals -->
    <line x1="0"   y1="0" x2="0"   y2="60"/>
    <line x1="55"  y1="0" x2="55"  y2="60"/>
    <line x1="110" y1="0" x2="110" y2="60"/>
    <line x1="165" y1="0" x2="165" y2="60"/>
    <line x1="220" y1="0" x2="220" y2="60"/>
    <!-- diagonals -->
    <line x1="0"   y1="0"  x2="55"  y2="60"/>
    <line x1="55"  y1="0"  x2="110" y2="60"/>
    <line x1="110" y1="60" x2="165" y2="0"/>
    <line x1="165" y1="60" x2="220" y2="0"/>
    <!-- end plates -->
    <rect x="-4"  y="-4" width="8" height="68" rx="1"/>
    <rect x="216" y="-4" width="8" height="68" rx="1"/>
    <!-- panel nodes -->
    <circle cx="0"   cy="0"  r="3" fill="var(--node-fill)" stroke="none" class="node-pulse-a"/>
    <circle cx="55"  cy="0"  r="3" fill="var(--node-fill)" stroke="none"/>
    <circle cx="110" cy="0"  r="3" fill="var(--node-fill)" stroke="none" class="node-pulse-b"/>
    <circle cx="165" cy="0"  r="3" fill="var(--node-fill)" stroke="none"/>
    <circle cx="220" cy="0"  r="3" fill="var(--node-fill)" stroke="none" class="node-pulse-c"/>
    <circle cx="0"   cy="60" r="3" fill="var(--node-fill)" stroke="none"/>
    <circle cx="220" cy="60" r="3" fill="var(--node-fill)" stroke="none"/>
  </g>

  <!-- Frame D — right side, pipe rack section -->
  <g class="frame-b" style="animation-delay:-7s" transform="translate(1300,380)">
    <!-- vertical columns -->
    <line x1="0"   y1="0" x2="0"   y2="200"/>
    <line x1="100" y1="0" x2="100" y2="200"/>
    <!-- horizontal beams -->
    <line x1="0"  y1="0"   x2="100" y2="0"/>
    <line x1="0"  y1="50"  x2="100" y2="50"/>
    <line x1="0"  y1="100" x2="100" y2="100"/>
    <line x1="0"  y1="150" x2="100" y2="150"/>
    <line x1="0"  y1="200" x2="100" y2="200"/>
    <!-- pipe lines on rack -->
    <line x1="-20" y1="20"  x2="120" y2="20"  stroke-dasharray="4,3" opacity="0.5"/>
    <line x1="-20" y1="30"  x2="120" y2="30"  stroke-dasharray="4,3" opacity="0.5"/>
    <line x1="-20" y1="70"  x2="120" y2="70"  stroke-dasharray="4,3" opacity="0.4"/>
    <line x1="-20" y1="78"  x2="120" y2="78"  stroke-dasharray="4,3" opacity="0.4"/>
    <!-- nodes -->
    <circle cx="0"   cy="0"   r="3.5" fill="var(--node-fill)" stroke="none" class="node-pulse-a"/>
    <circle cx="100" cy="0"   r="3.5" fill="var(--node-fill)" stroke="none"/>
    <circle cx="0"   cy="100" r="3.5" fill="var(--node-fill)" stroke="none" class="node-pulse-c"/>
    <circle cx="100" cy="200" r="3.5" fill="var(--node-fill)" stroke="none" class="node-pulse-b"/>
  </g>

  <!-- Frame E — bottom center, base plate detail -->
  <g class="frame-a" style="animation-delay:-5s" transform="translate(620,720)">
    <rect x="0"  y="0"  width="200" height="12" rx="1"/>
    <rect x="20" y="-80" width="14" height="80"/>
    <rect x="80" y="-80" width="14" height="80"/>
    <rect x="166" y="-80" width="14" height="80"/>
    <line x1="14" y1="-40" x2="94" y2="-40" opacity="0.6"/>
    <line x1="34" y1="-80" x2="80" y2="-40" opacity="0.6"/>
    <line x1="80" y1="-80" x2="126" y2="-40" opacity="0.6"/>
    <!-- anchor bolts -->
    <circle cx="10"  cy="6"  r="3" fill="var(--node-fill)" stroke="none"/>
    <circle cx="50"  cy="6"  r="3" fill="var(--node-fill)" stroke="none"/>
    <circle cx="100" cy="6"  r="3" fill="var(--node-fill)" stroke="none"/>
    <circle cx="150" cy="6"  r="3" fill="var(--node-fill)" stroke="none"/>
    <circle cx="190" cy="6"  r="3" fill="var(--node-fill)" stroke="none"/>
  </g>
</g>


<!-- ════════════════════════════════════════════
     LAYER 6 — STRUCTURAL NODES
     Glowing intersection dots across the grid.
     Edit cx/cy to reposition. Add more <circle> elements freely.
     ════════════════════════════════════════════ -->
<g id="bg-nodes" fill="var(--node-fill)" stroke="none">
  <!-- Large nodes at key intersections -->
  <circle cx="90"   cy="180" r="3.5" class="node-pulse-a"/>
  <circle cx="270"  cy="360" r="3"   class="node-pulse-b"/>
  <circle cx="90"   cy="540" r="3.5" class="node-pulse-c"/>
  <circle cx="360"  cy="90"  r="2.5" class="node-pulse-a"/>
  <circle cx="540"  cy="720" r="3"   class="node-pulse-b"/>
  <circle cx="1350" cy="180" r="3.5" class="node-pulse-c"/>
  <circle cx="1170" cy="360" r="3"   class="node-pulse-a"/>
  <circle cx="1350" cy="540" r="2.5" class="node-pulse-b"/>
  <circle cx="1080" cy="90"  r="3"   class="node-pulse-c"/>
  <circle cx="900"  cy="810" r="3.5" class="node-pulse-a"/>
  <circle cx="360"  cy="630" r="2.5" class="node-pulse-b"/>
  <circle cx="1080" cy="630" r="3"   class="node-pulse-c"/>
  <!-- Small scattered nodes -->
  <circle cx="180"  cy="270" r="2" opacity="0.4"/>
  <circle cx="450"  cy="180" r="2" opacity="0.4"/>
  <circle cx="720"  cy="90"  r="2" opacity="0.4"/>
  <circle cx="990"  cy="180" r="2" opacity="0.4"/>
  <circle cx="1260" cy="270" r="2" opacity="0.4"/>
  <circle cx="180"  cy="630" r="2" opacity="0.4"/>
  <circle cx="450"  cy="720" r="2" opacity="0.4"/>
  <circle cx="990"  cy="720" r="2" opacity="0.4"/>
  <circle cx="1260" cy="630" r="2" opacity="0.4"/>
</g>


<!-- ════════════════════════════════════════════
     LAYER 7 — AI DATA STREAMS
     Animated dashed lines simulating data flow /
     neural network connections.
     To add: copy a <line> with class="stream-*"
     and set stroke-dasharray + animation-delay.
     ════════════════════════════════════════════ -->
<g id="bg-streams" stroke="var(--stream-stroke)" stroke-width="1" fill="none">
  <!-- Diagonal streams — left side -->
  <line class="stream-a"
    x1="60"  y1="200" x2="380" y2="560"
    stroke-dasharray="8,12" stroke-dashoffset="200"/>
  <line class="stream-b"
    x1="120" y1="100" x2="440" y2="480"
    stroke-dasharray="5,15" stroke-dashoffset="0"/>
  <line class="stream-c"
    x1="0"   y1="400" x2="280" y2="700"
    stroke-dasharray="10,8" stroke-dashoffset="100"/>

  <!-- Horizontal streams — crossing center -->
  <line class="stream-b" style="animation-delay:-2s"
    x1="300" y1="280" x2="1140" y2="280"
    stroke-dasharray="6,14" stroke-dashoffset="300"/>
  <line class="stream-d"
    x1="200" y1="620" x2="1240" y2="620"
    stroke-dasharray="9,11" stroke-dashoffset="0"/>

  <!-- Diagonal streams — right side -->
  <line class="stream-c" style="animation-delay:-4s"
    x1="1060" y1="200" x2="1380" y2="520"
    stroke-dasharray="7,13" stroke-dashoffset="150"/>
  <line class="stream-a" style="animation-delay:-6s"
    x1="1200" y1="80"  x2="1440" y2="340"
    stroke-dasharray="5,15" stroke-dashoffset="200"/>
  <line class="stream-d" style="animation-delay:-3s"
    x1="1000" y1="400" x2="1440" y2="700"
    stroke-dasharray="8,12" stroke-dashoffset="0"/>

  <!-- Network arcs connecting nodes -->
  <path class="stream-b" style="animation-delay:-1s"
    d="M90,180 C200,160 260,300 270,360"
    stroke-dasharray="6,10"/>
  <path class="stream-c" style="animation-delay:-5s"
    d="M1350,180 C1240,220 1220,300 1170,360"
    stroke-dasharray="6,10"/>
  <path class="stream-a" style="animation-delay:-3s"
    d="M270,360 C400,450 500,500 540,720"
    stroke-dasharray="8,12"/>
  <path class="stream-d" style="animation-delay:-7s"
    d="M1170,360 C1040,450 940,500 900,810"
    stroke-dasharray="8,12"/>

  <!-- Short burst connections near frames -->
  <line class="stream-c" style="animation-delay:-2s"
    x1="140" y1="170" x2="260" y2="220"
    stroke-dasharray="4,8" stroke-width="0.8"/>
  <line class="stream-a" style="animation-delay:-8s"
    x1="1300" y1="440" x2="1400" y2="380"
    stroke-dasharray="4,8" stroke-width="0.8"/>
</g>


<!-- ════════════════════════════════════════════
     LAYER 8 — PARAMETRIC RINGS (BIM / digital twin)
     Rotating concentric rings suggesting digital twins
     and parametric design tools.
     ════════════════════════════════════════════ -->
<g id="bg-rings" fill="none">
  <!-- Top-left ring system -->
  <g transform="translate(200,180)">
    <circle r="60" stroke="var(--frame-stroke)" stroke-width="0.6" opacity="0.4"
            style="animation: spin-slow 40s linear infinite; transform-origin:0 0"/>
    <circle r="42" stroke="var(--frame-stroke)" stroke-width="0.6" opacity="0.3"
            stroke-dasharray="4,8"
            style="animation: spin-slow 28s linear reverse infinite; transform-origin:0 0"/>
    <circle r="24" stroke="var(--frame-stroke)" stroke-width="0.5" opacity="0.5"
            style="animation: spin-slow 18s linear infinite; transform-origin:0 0"/>
    <circle r="6"  fill="var(--node-fill)" opacity="0.6"/>
  </g>
  <!-- Bottom-right ring system -->
  <g transform="translate(1240,720)">
    <circle r="80" stroke="var(--frame-stroke)" stroke-width="0.6" opacity="0.35"
            stroke-dasharray="6,10"
            style="animation: spin-slow 50s linear infinite; transform-origin:0 0"/>
    <circle r="55" stroke="var(--frame-stroke)" stroke-width="0.6" opacity="0.3"
            style="animation: spin-slow 35s linear reverse infinite; transform-origin:0 0"/>
    <circle r="30" stroke="var(--frame-stroke)" stroke-width="0.5" opacity="0.45"
            stroke-dasharray="3,6"
            style="animation: spin-slow 22s linear infinite; transform-origin:0 0"/>
    <circle r="8"  fill="var(--node-fill)" opacity="0.5"/>
  </g>
  <!-- Top-right small ring -->
  <g transform="translate(1300,160)">
    <circle r="40" stroke="var(--frame-stroke)" stroke-width="0.5" opacity="0.3"
            stroke-dasharray="5,8"
            style="animation: spin-slow 32s linear reverse infinite; transform-origin:0 0"/>
    <circle r="22" stroke="var(--frame-stroke)" stroke-width="0.5" opacity="0.4"
            style="animation: spin-slow 20s linear infinite; transform-origin:0 0"/>
    <circle r="5"  fill="var(--node-fill)" opacity="0.55"/>
  </g>
</g>


<!-- ════════════════════════════════════════════
     LAYER 9 — ACCENT SPARKLES
     Gold star-shapes at key visual anchors.
     ════════════════════════════════════════════ -->
<g id="bg-sparkles" fill="var(--accent)" class="layer-glow2">
  <!-- 4-point star helper path:  L cx,cy+r  L cx+r/4,cy+r/4  L cx+r,cy ... -->
  <path d="M1380,60 L1382,68 L1390,70 L1382,72 L1380,80 L1378,72 L1370,70 L1378,68 Z" opacity="0.7"/>
  <path d="M60,800  L61,805 L66,806 L61,807 L60,812 L59,807 L54,806 L59,805 Z"        opacity="0.6"/>
  <path d="M720,40  L721,44 L725,45 L721,46 L720,50 L719,46 L715,45 L719,44 Z"        opacity="0.5"/>
  <path d="M1440,450 L1441,454 L1445,455 L1441,456 L1440,460 L1439,456 L1435,455 L1439,454 Z" opacity="0.45"/>
  <path d="M0,350   L1,354 L5,355 L1,356 L0,360 L-1,356 L-5,355 L-1,354 Z"            opacity="0.4"/>
</g>


<!-- ════════════════════════════════════════════
     LAYER 10 — FINAL VIGNETTE
     Darkens edges so page content reads cleanly.
     Increase opacity values to darken more.
     ════════════════════════════════════════════ -->
<defs>
  <radialGradient id="g-vignette" cx="50%" cy="50%" r="70%">
    <stop offset="40%" stop-color="transparent"/>
    <stop offset="100%" stop-color="var(--bg-base)" stop-opacity="0.7"/>
  </radialGradient>
</defs>
<rect width="1440" height="900" fill="url(#g-vignette)"/>

</g><!-- end clip-path -->
</svg>
